<?xml version="1.0" encoding="UTF-8"?>
<svg id="Calque_2" xmlns="http://www.w3.org/2000/svg" viewBox="0 0 710.8 241">
    <g id="svg2">
        <g>
            <path id="text2175" class="cls-1" d="M0,183.8H6.3c.5,8.1,2.8,13.7,7.2,16.9,4.3,3.2,11.2,4.8,20.7,4.8h46.7l-.3-11.5c-18.1-3.6-34.7-13.7-49.6-30.3-14.9-16.5-22.4-37.4-22.4-62.6,0-27.9,10.4-51.8,31.2-71.5S87.8,0,121.3,0s59.1,9.3,79.7,28c20.6,18.6,31,42.5,31,71.6,0,23.6-6.4,43.6-19.2,60.1s-30.2,27.9-52.1,34.3l-1.7,11.5h47.5c10.8,0,18-2.1,21.5-6.2,3.5-4.1,5.3-9.3,5.6-15.6h6.3v53.5h-95.8l4.4-51.6c29.4-9.2,44.1-36.4,44.1-81.6,0-29.5-7.2-52.2-21.6-67.9-14.4-15.7-31.3-23.6-50.7-23.6-20.6,0-37.7,8.4-51.2,25.1-13.5,16.7-20.3,38-20.3,64,0,18.8,3,35.9,9.1,51.4,6,15.4,17.6,26.3,34.7,32.6l3.2,51.6H0v-53.4h0Z" />
            <g>
                <path class="cls-1" d="M368.2,103.9h-33v-4.5c1.1-.1,2.1-.2,3.2-.3,1.1-.1,2-.3,2.9-.6,1.3-.4,2.2-1.1,2.9-2.2,.6-1,.9-2.4,.9-4V57.3c0-4.8-1.1-8.4-3.3-11s-4.9-3.9-8.1-3.9c-2.2,0-4.4,.3-6.3,1-2,.7-3.8,1.6-5.4,2.9-1.3,1-2.4,2.1-3.3,3.3-.9,1.2-1.6,2.1-2,2.9v39.1c0,1.6,.3,2.9,.8,4s1.5,1.8,2.8,2.4c1.1,.4,2,.7,2.9,.9,.8,.2,2,.4,3.3,.4v4.5h-32.3v-4.5c1.1-.1,2.1-.2,3.1-.3s1.9-.3,2.7-.6c1.3-.4,2.2-1.1,2.9-2.2,.6-1,.9-2.4,.9-4V57.2c0-4.8-1.1-8.4-3.3-11s-4.9-3.9-8.2-3.9c-2.3,0-4.4,.4-6.3,1.1-2,.7-3.8,1.7-5.4,2.9-1.3,1-2.5,2.1-3.4,3.4-.9,1.3-1.6,2.2-2.1,2.9v38.8c0,1.6,.3,2.9,1,3.9,.6,1.1,1.6,1.9,2.9,2.4,1,.5,1.9,.8,3,1,1,.2,2.1,.4,3.4,.5v4.5h-32.9v-4.5c1.1-.1,2.1-.2,3.3-.3,1.1-.1,2.1-.3,2.9-.5,1.3-.4,2.2-1.1,2.9-2.2,.6-1,.9-2.4,.9-4V50.1c0-1.5-.3-2.8-1-3.9-.7-1.2-1.6-2.2-2.8-3-.9-.5-1.9-1-3.2-1.3s-2.6-.6-4-.7v-4.5l22.7-1.5,1,1v9.7h.5c1.1-1.1,2.5-2.5,4.2-4.1,1.6-1.6,3.2-2.8,4.6-3.8,1.6-1.1,3.6-2,6-2.8,2.4-.7,5-1.1,7.8-1.1,4.4,0,8.2,1.2,11.3,3.5,3.2,2.4,5.4,5.2,6.8,8.6,1.6-1.6,3.1-3,4.4-4.2,1.3-1.2,2.9-2.5,5-3.9,1.7-1.2,3.8-2.2,6.1-2.9,2.4-.7,5-1.1,7.9-1.1,5.7,0,10.2,1.9,13.6,5.6,3.3,3.8,5,9.5,5,17.3v34.4c0,1.6,.3,2.9,.8,4s1.5,1.8,2.8,2.4c1.1,.4,2.1,.7,3.1,.9s2.2,.4,3.5,.4v4.8h-.4Z" />
                <path class="cls-1" d="M436.5,88c-2.8,5.4-6.6,9.7-11.4,12.9-4.8,3.2-10.2,4.8-16.4,4.8-5.5,0-10.2-1-14.3-2.9s-7.5-4.5-10.1-7.8c-2.7-3.3-4.6-7.1-5.9-11.5-1.3-4.4-2-9.1-2-14,0-4.4,.7-8.7,2.1-13,1.4-4.2,3.4-8.1,6.2-11.4,2.6-3.3,5.9-5.9,9.7-7.9,3.9-2,8.2-3,13-3s9.2,.8,12.7,2.3c3.5,1.6,6.4,3.7,8.6,6.4,2.1,2.6,3.7,5.6,4.7,9.1s1.5,7.3,1.5,11.3v4.5h-44.9c0,4.5,.4,8.5,1.3,12.1,.8,3.6,2.2,6.8,4,9.6,1.8,2.7,4.1,4.8,7,6.3s6.3,2.3,10.3,2.3,7.6-1,10.6-2.9,5.8-5.4,8.6-10.3l4.7,3.1Zm-15.2-25.9c0-2.6-.2-5.3-.7-8.2-.4-2.9-1.1-5.4-2.1-7.3-1.1-2.1-2.5-3.8-4.3-5.1s-4.2-2-7.1-2c-4.8,0-8.8,2-12,6s-4.9,9.6-5.2,16.7h31.4v-.1Z" />
                <path class="cls-1" d="M502.4,96.9c1.8,1.7,3.3,3.7,4.3,5.9,1.1,2.2,1.6,4.9,1.6,8.2s-.7,6.3-2.1,9.2c-1.4,2.9-3.6,5.4-6.5,7.5-3.1,2.2-6.7,3.8-11,5s-9.5,1.8-15.8,1.8c-10.3,0-17.9-1.5-23-4.5s-7.6-7.4-7.6-13.2c0-4.7,1.8-8.4,5.5-11.1,3.7-2.7,8.3-4.2,14-4.4v-1c-1.4-.4-2.8-.9-4.3-1.5s-2.7-1.3-3.8-2.2c-1.2-1-2.2-2.1-2.9-3.4-.7-1.3-1.1-2.9-1.1-4.8,0-2.4,.9-4.7,2.6-6.7,1.7-2,4.3-3.8,7.8-5.3v-1c-4.4-2.1-7.8-4.7-10.2-7.9s-3.6-7-3.6-11.2c0-6.4,2.4-11.7,7.2-15.8s10.9-6.2,18.4-6.2c2.1,0,4.1,.2,6.2,.6,2,.4,4.1,.9,6.2,1.6h23.6v6.6h-15.9v.4c1.7,2,3,4.1,3.8,6.5s1.2,4.7,1.2,7c0,6-2.4,11-7.3,15.1-4.8,4.1-10.5,6.2-16.9,6.2h-8.3c-1.1,.4-2.2,1-3.3,2s-1.7,2.3-1.7,3.9c0,1.7,.5,3,1.4,3.9,1,.9,2.1,1.5,3.5,1.8,1.3,.4,2.9,.6,4.6,.7,1.8,.1,3.6,.2,5.5,.2,2,0,4.8,.2,8.3,.4s6,.4,7.5,.4c2.1,.1,4.2,.6,6.4,1.5,2.1,1,4,2.2,5.7,3.8Zm-5.3,16.7c0-2.6-.6-4.7-1.8-6.3-1.2-1.7-3-2.8-5.4-3.4-1.3-.2-3.9-.4-7.9-.6-4-.2-8.6-.3-13.9-.3-4.9,1-8.5,2.6-10.6,4.8-2.1,2.3-3.1,5.2-3.1,8.8,0,1.6,.3,3.1,1,4.6s1.9,2.8,3.6,4.1c1.6,1.2,3.8,2.2,6.5,2.9,2.7,.8,6,1.1,9.9,1.1,6.7,0,12-1.3,15.9-3.9,3.8-2.6,5.8-6.6,5.8-11.8Zm-13.2-56.9c0-5.4-1.1-9.6-3.3-12.8s-5.2-4.8-9.2-4.8c-2.2,0-4,.4-5.5,1.3-1.5,.9-2.8,2.2-3.7,3.8-.9,1.5-1.6,3.3-2,5.5-.4,2.1-.6,4.3-.6,6.6,0,5.1,1.1,9.2,3.3,12.4s5.1,4.8,8.6,4.8c3.9,0,7-1.6,9.1-4.8,2.2-3.1,3.3-7.1,3.3-12Z" />
                <path class="cls-1" d="M580.3,102.7c-2.2,.8-4,1.4-5.7,1.9-1.6,.5-3.5,.7-5.5,.7-3.6,0-6.4-.8-8.6-2.5-2.1-1.7-3.5-4.1-4.1-7.3h-.4c-3,3.3-6.2,5.8-9.6,7.6-3.4,1.7-7.5,2.6-12.3,2.6-5.1,0-9.3-1.6-12.5-4.7-3.3-3.1-4.9-7.2-4.9-12.2,0-2.6,.4-4.9,1.1-7s1.8-3.9,3.3-5.6c1.1-1.4,2.7-2.6,4.5-3.7,1.9-1.1,3.6-1.9,5.3-2.6,2.1-.8,6.2-2.2,12.5-4.3s10.6-3.8,12.8-4.9v-6.8c0-.6-.1-1.7-.4-3.4s-.8-3.3-1.6-4.8c-.9-1.7-2.2-3.2-3.9-4.4-1.7-1.3-4-1.9-7.1-1.9-2.1,0-4.1,.4-5.9,1.1-1.8,.7-3.1,1.5-3.8,2.2,0,.9,.2,2.3,.7,4.1,.4,1.8,.7,3.4,.7,4.9,0,1.6-.7,3.1-2.2,4.4-1.4,1.3-3.4,2-6,2-2.3,0-4-.8-5.1-2.4-1.1-1.6-1.6-3.4-1.6-5.5s.7-4.1,2.2-6.1c1.5-1.9,3.4-3.6,5.8-5.2,2.1-1.3,4.6-2.4,7.5-3.3,2.9-.9,5.8-1.3,8.6-1.3,3.8,0,7.2,.3,10.1,.8s5.5,1.7,7.8,3.4,4.1,4,5.3,6.9c1.2,2.9,1.8,6.7,1.8,11.2,0,6.6-.1,12.4-.2,17.4-.1,5.1-.2,10.6-.2,16.6,0,1.8,.3,3.2,.9,4.3s1.6,1.9,2.9,2.7c.7,.4,1.8,.6,3.3,.7,1.5,0,3,.1,4.6,.1v4.3h-.1Zm-24-36.3c-3.9,1.1-7.3,2.3-10.2,3.4-2.9,1.1-5.7,2.5-8.2,4.1-2.3,1.6-4.1,3.4-5.4,5.5s-2,4.7-2,7.6c0,3.8,1,6.6,3,8.4,2,1.8,4.5,2.7,7.6,2.7,3.3,0,6.1-.8,8.6-2.4,2.5-1.6,4.6-3.5,6.3-5.6l.3-23.7Z" />
            </g>
            <g>
                <path class="cls-1" d="M368,237.3h-33v-4.5c1.1-.1,2.1-.2,3.2-.3,1.1-.1,2-.3,2.9-.6,1.3-.4,2.2-1.1,2.9-2.2,.6-1,.9-2.4,.9-4v-35c0-4.8-1.1-8.4-3.3-11s-4.9-3.9-8.1-3.9c-2.2,0-4.4,.3-6.3,1-2,.7-3.8,1.6-5.4,2.9-1.3,1-2.4,2.1-3.3,3.3-.9,1.2-1.6,2.1-2,2.9v39.1c0,1.6,.3,2.9,.8,4,.5,1,1.5,1.8,2.8,2.4,1.1,.4,2,.7,2.9,.9,.8,.2,2,.4,3.3,.4v4.5h-32.3v-4.5c1.1-.1,2.1-.2,3.1-.3s1.9-.3,2.7-.6c1.3-.4,2.2-1.1,2.9-2.2,.6-1,.9-2.4,.9-4v-35c0-4.8-1.1-8.4-3.3-11s-4.9-3.9-8.2-3.9c-2.3,0-4.4,.4-6.3,1.1-2,.7-3.8,1.7-5.4,2.9-1.3,1-2.5,2.1-3.4,3.4-.9,1.3-1.6,2.2-2.1,2.9v38.8c0,1.6,.3,2.9,1,3.9,.6,1.1,1.6,1.9,2.9,2.4,1,.5,1.9,.8,3,1,1,.2,2.1,.4,3.4,.5v4.5h-32.9v-4.5c1.1-.1,2.1-.2,3.3-.3,1.1-.1,2.1-.3,2.9-.5,1.3-.4,2.2-1.1,2.9-2.2,.6-1,.9-2.4,.9-4v-41.9c0-1.5-.3-2.8-1-3.9-.7-1.2-1.6-2.2-2.8-3-.9-.5-1.9-1-3.2-1.3s-2.6-.6-4-.7v-4.5l22.7-1.5,1,1v9.7h.5c1.1-1.1,2.5-2.5,4.2-4.1,1.6-1.6,3.2-2.8,4.6-3.8,1.6-1.1,3.6-2,6-2.8,2.4-.7,5-1.1,7.8-1.1,4.4,0,8.2,1.2,11.3,3.5,3.2,2.4,5.4,5.2,6.8,8.6,1.6-1.6,3.1-3,4.4-4.2,1.3-1.2,2.9-2.5,5-3.9,1.7-1.2,3.8-2.2,6.1-2.9,2.4-.7,5-1.1,7.9-1.1,5.7,0,10.2,1.9,13.6,5.6,3.3,3.8,5,9.5,5,17.3v34.4c0,1.6,.3,2.9,.8,4,.5,1,1.5,1.8,2.8,2.4,1.1,.4,2.1,.7,3.1,.9s2.2,.4,3.5,.4v4.6h-.4Z" />
                <path class="cls-1" d="M450.9,237.3h-33.1v-4.5c1.1-.1,2.2-.2,3.5-.3s2.3-.3,3.1-.6c1.3-.4,2.2-1.1,2.9-2.2,.6-1,.9-2.4,.9-4v-34.9c0-4.8-1.1-8.5-3.4-11.1-2.3-2.6-5-3.9-8.3-3.9-2.4,0-4.7,.4-6.7,1.1-2,.8-3.8,1.7-5.4,2.8-1.5,1.1-2.7,2.2-3.6,3.4-.9,1.2-1.6,2.2-2,2.9v39c0,1.6,.3,2.8,1,3.8,.6,1,1.6,1.8,2.9,2.3,1,.5,2,.8,3.1,1s2.3,.4,3.5,.5v4.5h-33.2v-4.5c1.1-.1,2.1-.2,3.3-.3,1.1-.1,2.1-.3,2.9-.5,1.3-.4,2.2-1.1,2.9-2.2,.6-1,.9-2.4,.9-4v-41.8c0-1.6-.3-3-1-4.3s-1.6-2.4-2.8-3.2c-.9-.5-1.9-.9-3.1-1.2-1.2-.3-2.5-.4-3.8-.5v-4.5l22.5-1.5,1,1v9.6h.3c1.1-1.1,2.5-2.4,4.1-4,1.6-1.5,3.2-2.8,4.7-3.7,1.7-1.1,3.7-2,6-2.8,2.3-.7,5-1.1,7.9-1.1,6.5,0,11.3,2,14.5,6.1,3.1,4.1,4.7,9.5,4.7,16.2v35.3c0,1.6,.3,2.9,.8,3.9s1.5,1.8,2.8,2.3c1.1,.5,2.1,.8,2.9,1,.8,.2,1.9,.3,3.3,.4v4.5h0Z" />
                <path class="cls-1" d="M492.1,237.3h-32.7v-4.5c1.1-.1,2.1-.2,3.3-.3,1.1-.1,2.1-.3,2.9-.5,1.3-.4,2.2-1.1,2.9-2.2,.6-1,.9-2.4,.9-4v-41.8c0-1.5-.3-2.8-1-4s-1.6-2.2-2.8-3.1c-.9-.5-2.1-1-3.8-1.4-1.6-.4-3.2-.6-4.5-.7v-4.5l23.9-1.5,1,1v55.3c0,1.6,.3,2.9,.9,4,.6,1.1,1.6,1.8,2.9,2.3,1,.4,2,.7,2.9,1,1,.3,2,.4,3.2,.5v4.4h0Z" />
                <path class="cls-1" d="M569.3,203.4c0,10.2-3.2,18.7-9.6,25.6-6.4,6.9-13.9,10.4-22.3,10.4-3.7,0-7.4-.6-11-1.7-3.6-1.1-7-2.7-10.1-4.6l-5.1,7.9-4.3-1c.2-3.4,.4-7.5,.5-12.2,.1-4.8,.1-9.4,.1-13.8v-67.1c0-1.6-.4-3.1-1.1-4.7-.7-1.6-1.6-2.7-2.7-3.4-.9-.6-2.3-1-4.4-1.3-2-.3-3.7-.5-4.9-.6v-4.4l24.9-1.5,1,1v44.7l.5,.1c2.8-3,5.9-5.3,9.3-6.8s6.7-2.3,9.9-2.3c8.3,0,15.3,3.3,20.9,9.9,5.6,6.6,8.4,15.2,8.4,25.8Zm-14.4,.4c0-3.4-.4-6.9-1.1-10.4s-1.9-6.6-3.4-9.2c-1.6-2.7-3.6-4.8-6.1-6.5s-5.5-2.5-9.1-2.5c-3.2,0-6,.6-8.4,1.9-2.4,1.3-4.6,3-6.5,5.1v39.5c.3,1.1,.8,2.4,1.6,3.9,.8,1.5,1.9,2.9,3.3,4.2s2.9,2.3,4.7,3.1c1.7,.8,3.9,1.2,6.4,1.2,5.6,0,10.1-2.7,13.5-8.1,3.4-5.4,5.1-12.8,5.1-22.2Z" />
                <path class="cls-1" d="M652,236.1l-22.1,1.5-1-1v-8.6h-.4c-1.1,1.1-2.3,2.4-3.7,3.7-1.4,1.3-3,2.5-4.7,3.5-2.1,1.2-4.1,2.2-6,2.8s-4.6,1-8.2,1c-6,0-10.6-2-13.7-5.9s-4.7-9.6-4.7-17.1v-32.3c0-1.6-.3-3-.9-4.2-.6-1.1-1.5-2.1-2.7-2.9-.8-.5-1.9-.9-3.1-1.2s-2.6-.4-3.9-.5v-4.5l22.6-1.6,1,1v47.1c0,4.9,1.1,8.6,3.3,11.1,2.2,2.5,4.8,3.7,7.9,3.7,2.5,0,4.8-.4,6.7-1.2,2-.8,3.6-1.7,4.9-2.7,1.2-1,2.3-2,3.3-3.1,.9-1.1,1.7-2.1,2.2-3v-38.4c0-1.5-.3-2.8-1-4-.6-1.2-1.5-2.2-2.7-3-.8-.6-2.1-.9-3.7-1s-3.4-.2-5.5-.3v-4.5l24.7-1.6,1,1v53.8c0,1.6,.3,2.9,1,4,.6,1.1,1.5,2,2.7,2.8,.8,.5,1.8,.8,3,1,1.1,.2,2.4,.3,3.8,.3v4.3h-.1Z" />
                <path class="cls-1" d="M705,204.1c1.9,1.7,3.3,3.6,4.3,5.7,1,2.2,1.5,4.8,1.5,7.9,0,6.3-2.3,11.4-7,15.4s-10.8,6-18.3,6c-3.9,0-7.6-.7-10.9-2.1-3.3-1.4-5.7-2.7-7.1-3.9l-1.4,4.5h-5.2l-.7-23.6h4.7c.4,1.8,1.1,3.9,2.3,6.3,1.2,2.4,2.6,4.6,4.3,6.5,1.8,2,3.9,3.7,6.4,5.1,2.5,1.4,5.3,2.1,8.4,2.1,4.4,0,7.8-1,10.2-3,2.4-2,3.6-4.9,3.6-8.6,0-1.9-.4-3.6-1.1-5-.8-1.4-1.9-2.6-3.3-3.7-1.5-1.1-3.4-2-5.6-2.9-2.2-.8-4.7-1.7-7.4-2.5-2.2-.6-4.5-1.5-7.2-2.6-2.6-1.1-4.9-2.4-6.8-4-2-1.6-3.7-3.6-4.9-5.9-1.3-2.3-1.9-5.1-1.9-8.2,0-5.5,2.1-10.2,6.2-14.1,4.1-3.8,9.6-5.8,16.6-5.8,2.7,0,5.4,.3,8.1,1,2.8,.7,5,1.5,6.8,2.5l1.6-3.6h4.9l1,21.8h-4.7c-1-4.9-3-8.8-6.2-11.9-3.2-3.1-7.1-4.6-11.7-4.6-3.8,0-6.7,.9-8.9,2.8-2.2,1.9-3.2,4.2-3.2,6.9,0,2.1,.4,3.8,1.1,5.2s1.8,2.5,3.2,3.5c1.4,.9,3.1,1.8,5.2,2.6s4.7,1.7,7.7,2.7,5.9,2.1,8.6,3.4c2.9,1.1,5.1,2.5,6.8,4.1Z" />
            </g>
            <circle class="cls-1" cx="474.6" cy="148.6" r="8.2" />
        </g>
    </g>
</svg>
